<?xml version="1.0" encoding="UTF-8" standalone="no"?><svg xmlns:inkscape="http://www.inkscape.org/namespaces/inkscape" xmlns:sodipodi="http://sodipodi.sourceforge.net/DTD/sodipodi-0.dtd" xmlns="http://www.w3.org/2000/svg" xmlns:svg="http://www.w3.org/2000/svg" version="1.1" id="svg2" width="684.47998" height="248.09332" viewBox="0 0 684.47998 248.09332" sodipodi:docname="fest pass2.eps">
  <defs id="defs6"/>
  <sodipodi:namedview id="namedview4" pagecolor="#ffffff" bordercolor="#000000" borderopacity="0.25" inkscape:showpageshadow="2" inkscape:pageopacity="0.0" inkscape:pagecheckerboard="0" inkscape:deskcolor="#d1d1d1"/>
  <g id="g8" inkscape:groupmode="layer" inkscape:label="ink_ext_XXXXXX" transform="matrix(1.3333333,0,0,-1.3333333,0,248.09333)">
    <g id="g10" transform="scale(0.1)">
      <path d="M 266.156,1764.55 C 162.855,1738.84 85.2539,1637.14 86.457,1530.84 86.6563,1127.75 85.957,724.75 86.7539,321.648 88.8555,201.738 191.953,93.1406 312.453,88.6484 c 106.703,-1.3984 213.5,-1 320.203,-0.1992 114.098,2.4024 214.899,97.9998 227.899,210.4998 5.601,60.289 0,121 2.8,181.391 0.598,21.012 17.301,42.211 39.801,41.308 66.5,4.403 133.404,-2.41 199.904,3.5 108.7,16.704 197.6,115.602 202.2,225.704 2.5,92.597 -0.9,185.293 1.4,277.898 -0.8,18.5 17.5,27.89 29.2,38.89 59.4,45 97.1,117.91 96.7,192.81 -0.1,93.3 0.6,186.69 -0.4,280 -2.5,121.3 -108.7,229 -230.2,232.3 -293.304,0.2 -586.605,-0.11 -879.905,0.09 -18.899,-0.2 -37.7,-3.5 -55.899,-8.29 z m -226.9997,-81 c 55.1992,107.29 172.1987,176.4 292.3987,176.4 283.699,0.8 567.3,0.39 851.005,0.19 100.5,-0.09 202.1,-44.69 263.5,-125.59 46.3,-57.21 72.2,-130.21 72.2,-203.8 0.1,-93.7 0.7,-187.41 -0.3,-281 -2.4,-96.11 -51.2,-187.91 -126,-247.5 -1.2,-87.703 1.9,-175.398 -1.5,-263.102 -9.2,-144.398 -125.2,-272.898 -267.7,-297.41 -57.5,-10.187 -116.1,-5.289 -174.104,-6.59 -0.5,-45.097 1.699,-90.296 -1.801,-135.398 C 936.754,178.852 852.656,66.8516 738.656,24.75 677.355,-3.26172 608.156,1.25 542.453,0.25 c -87.098,1.78906 -174.598,-4.10156 -261.5,5 -152.797,20.1992 -278.29675,161 -279.89831,315.5 -0.800784,380 -0.097659,760.09 -0.39844,1140.09 -2.30078,75.71 -0.5,155.3 38.50005,222.71" style="fill:#248232;fill-opacity:1;fill-rule:nonzero;stroke:none" id="path12"/>
      <path d="m 1833.36,1859.34 25.6,-0.29 0.3,-1857.49922 -25.8,-0.30078 -0.1,1858.09" style="fill:#248232;fill-opacity:1;fill-rule:nonzero;stroke:none" id="path14"/>
      <path d="m 3720.86,1781.64 c 58.5,56.31 143.5,68.11 220.7,77.81 112.4,4.5 236.2,0 330.8,-68.61 66.19,-47 89.8,-130.59 92.9,-208 -21.2,0 -42.3,0 -63.4,0 -5.9,60.21 -21.9,126.5 -72.6,165 -62.5,44.61 -142.61,51.5 -217,52.5 -78.6,-1.29 -163.9,-4 -230.61,-50.7 -75.09,-52 -68.39,-183.59 14.7,-224.59 108.21,-51.8 230.71,-55.71 344.7,-88.8 75.9,-19.5 161.71,-40.8 208.71,-109.41 46.2,-74 46.59,-182.39 -17,-246.79 -65.4,-65.21 -160.5,-87.905 -249.4,-97.503 -128.6,-8 -272.9,5.398 -372.1,96.593 -62.3,53.61 -77.41,140.5 -74.5,218.61 21.4,0.09 42.9,0.2 64.5,0.3 -3.3,-71.41 14.4,-150.71 75.39,-194.8 88.31,-61.5 202.11,-68.5 306.11,-60 60.5,6.3 122.3,19.2 174.8,51.5 62,40.3 77,129.89 41.8,192.5 -24.4,42.59 -73.6,61.2 -118.6,72.89 -123,29.5 -248.2,51.2 -368.4,91.5 -55.5,21.2 -112.8,56.5 -134.2,115 -27.6,71.61 -14.9,161.5 42.7,215" style="fill:#248232;fill-opacity:1;fill-rule:nonzero;stroke:none" id="path16"/>
      <path d="m 2305.56,1850.25 c 203.3,0.2 406.6,0.09 609.9,0.09 0,-20 -0.1,-40 0,-60 -182.1,-0.09 -364.2,0.11 -546.2,0 -0.1,-107.5 -0.1,-214.89 0,-322.39 155.8,-0.11 311.6,-0.11 467.39,0 0,-20 0,-40 0.11,-60.11 -155.8,0 -311.6,-0.09 -467.4,0.11 -0.3,-139.2 -0.2,-278.4 -0.1,-417.505 -21.3,0 -42.5,0 -63.7,0 0.1,286.605 0.1,573.195 0,859.805" style="fill:#248232;fill-opacity:1;fill-rule:nonzero;stroke:none" id="path18"/>
      <path d="m 2947.16,1850.34 c 218.5,0 436.99,0 655.4,0 0.2,-20.2 0.5,-40.29 0.9,-60.5 -197.6,1.11 -395.1,0.3 -592.6,0.5 -0.1,-107.5 -0.1,-214.89 0,-322.39 174.7,-0.11 349.5,0.19 524.2,0.1 0.3,-20.3 0.7,-40.6 1.1,-60.91 -175.2,0.91 -350.3,0.11 -525.4,0.7 0.5,-119.89 -0.3,-239.7 0.4,-359.59 199.3,-0.3 398.6,-0.3 597.9,-0.41 0,-19.09 0,-38.29 0.09,-57.395 -220.6,-0.199 -441.29,-0.101 -661.89,-0.101 -0.91,286.706 0.4,573.296 -0.1,859.996" style="fill:#248232;fill-opacity:1;fill-rule:nonzero;stroke:none" id="path20"/>
      <path d="m 4410.66,1850.34 c 240.99,0 482,0 722.9,0 -0.1,-20 -0.1,-40 0,-60 -109.71,-0.09 -219.41,0.11 -329,-0.09 0,-266.61 0,-533.2 0,-799.906 -21.7,0 -43.3,0 -64.8,0 0,266.706 -0.1,533.296 0,799.906 -109.7,0.2 -219.4,0 -329,0.09 -0.1,20 -0.1,40 -0.1,60" style="fill:#248232;fill-opacity:1;fill-rule:nonzero;stroke:none" id="path22"/>
      <path d="m 330.953,1527.84 c 285.703,0 571.5,0.11 857.207,0 0,-88.29 0,-176.7 0,-265 -189.906,-0.09 -379.805,0 -569.707,-0.09 -0.098,-76.61 -0.098,-153.3 0,-229.91 147.703,0.11 295.402,0 443.107,0 -0.1,-89.195 0.1,-178.391 -0.1,-267.59 -147.706,0.102 -295.405,0.102 -443.105,0.102 0,-144.204 0.098,-288.313 0,-432.512 -95.8,-0.09 -191.601,0 -287.402,0 0,398.308 0,796.71 0,1195" style="fill:#090e0f;fill-opacity:1;fill-rule:nonzero;stroke:none" id="path24"/>
      <path d="m 2364.56,732.648 c -1.2,-109.796 0.3,-219.597 -0.2,-329.507 110.7,0.308 221.4,-1.692 332.1,0.808 74.8,3.891 161.1,38.09 187.2,114.699 17.1,61.993 1,140.204 -55.5,177.301 -42.2,30.199 -96.1,34.699 -146.3,36.403 -105.7,0.898 -211.5,0.296 -317.3,0.296 z m -58.9,55.204 c 122.2,0.097 244.5,0.199 366.7,0.199 68.6,1.5 139.1,-13.199 197.9,-49.403 66.69,-45 87.2,-133.398 77.2,-209.199 -8.1,-63 -55,-114.5 -110.1,-142.41 -54.4,-26.289 -115,-38.687 -175.3,-38.898 -99.3,-0.692 -198.6,-0.09 -297.9,-0.301 0,-112.5 0,-225 0,-337.5002 -19.6,0.1094 -39.1,0.1094 -58.6,0 0.2,259.1992 -0.2,518.3082 0.1,777.5122" style="fill:#090e0f;fill-opacity:1;fill-rule:nonzero;stroke:none" id="path26"/>
      <path d="m 3154.66,307.949 c 121.9,-0.109 243.8,-0.109 365.8,0 -59.6,131.5 -119,263.102 -178.9,394.5 -62.5,-131.398 -124.61,-263 -186.9,-394.5 z m 159.7,480.102 c 17.8,-0.102 35.7,-0.199 53.6,-0.301 117.5,-259.102 234.9,-518.211 352.2,-777.4102 -21.61,0 -43.1,0 -64.6,0 -36.6,81.0118 -73.91,161.6992 -111,242.5002 -138.4,0 -276.7,0 -415.11,0 -37.5,-80.488 -76.09,-160.59 -112.5,-241.59 -22.59,-0.8008 -45.19,-1 -67.69,-1 121.6,259.289 243.1,518.699 365.1,777.801" style="fill:#090e0f;fill-opacity:1;fill-rule:nonzero;stroke:none" id="path28"/>
      <path d="m 3820.76,742.551 c 73.69,47.398 165.7,53.301 251.1,53 88,-4.801 186.8,-16.699 249.79,-85.5 43.71,-42.903 55.61,-106 59.51,-164.711 -19.21,0 -38.2,0.109 -57.31,0.109 -5.09,57.301 -19.89,122.102 -71.99,155 -69.5,39.403 -152.3,40.801 -230.1,38.602 -63.21,-4.699 -133,-12 -180.9,-58.403 -52.6,-51.398 -42.1,-151.898 24.2,-187 96.29,-50.699 208.9,-48.007 311.89,-77.296 67.31,-18.403 142.71,-36.813 186.41,-96.204 47.1,-67.097 45.9,-168.898 -12.4,-229.0972 -63.2,-61.1016 -153,-85.50002 -238.9,-89.60158 -82.1,-2.000001 -166.6,3.89062 -242.61,37.90238 -57.89,24.0976 -110.19,69.0974 -130.99,129.5974 -14.01,37.903 -15,78.891 -15.2,118.801 19.4,0.09 38.8,0.199 58.3,0.301 -1.9,-58.512 8.8,-122.602 54.9,-163.301 73.7,-67.5 181.4,-70.8984 275.9,-69.4102 68.69,5.211 143.3,19.6094 193.69,70.5122 38.31,38.296 39.91,101.097 18.91,148.296 -21.6,42.59 -70.2,60.704 -113.91,71.192 -112.69,28.211 -229.1,42.91 -338.29,83.898 -47.3,19.614 -93.2,52.801 -112.1,102.211 -28.4,73.102 -8,167 60.1,211.102" style="fill:#090e0f;fill-opacity:1;fill-rule:nonzero;stroke:none" id="path30"/>
      <path d="m 4626.26,774.352 c 86.8,24.5 179.2,27.398 268,12.398 63.7,-8.398 128.6,-33.398 170.6,-84 38.8,-42.602 48.8,-101.898 52.9,-157.301 -19.1,-0.109 -38.2,-0.109 -57.2,-0.109 -5.3,61.012 -23.1,131.308 -82.5,161.308 -92.3,41.5 -198.2,38.801 -296.2,23.102 -62.5,-8.898 -132.6,-50 -136.9,-119.5 -9.9,-58.301 31.09,-113.211 85.3,-130.898 136,-48.711 289.4,-41 417.9,-112.614 102.8,-56.886 116,-223.09 20,-292.4997 -103.3,-80.28908 -243.5,-81.88674 -367.4,-64.1875 -72.7,15.5898 -148.9,43.1992 -195.7,104.3012 -39.8,48.199 -46.1,113.398 -45.3,173.488 19.5,0 38.9,0 58.5,0.109 -2.9,-61.898 11.1,-129.597 62.2,-170 77.9,-63.3006 185.3,-64.8084 281,-61.9998 62.99,7.4024 130.9,20.6992 177.9,66.9998 40,36.403 43.5,98.602 24.4,146.403 -16.5,38.296 -56.4,58.597 -94.2,70.187 -119.2,32.199 -243.4,45.91 -359.5,89.41 -51.4,20.903 -100.61,58.602 -117,113.801 -13.8,49.398 -11.11,105.602 16.7,149.898 24.9,42.5 70.1,68.801 116.5,81.704" style="fill:#090e0f;fill-opacity:1;fill-rule:nonzero;stroke:none" id="path32"/>
    </g>
  </g>
</svg>